<mxfile host="Electron" modified="2024-05-24T10:26:23.935Z" agent="Mozilla/5.0 (Windows NT 10.0; Win64; x64) AppleWebKit/537.36 (KHTML, like Gecko) draw.io/24.4.0 Chrome/120.0.6099.109 Electron/28.1.0 Safari/537.36" etag="GcYYC5rty2jXpA4uB_hg" version="24.4.0" type="device">
  <diagram name="Page-1" id="KX_StO38O2NihVAVDzKb">
    <mxGraphModel dx="3970" dy="2595" grid="1" gridSize="10" guides="1" tooltips="1" connect="1" arrows="1" fold="1" page="1" pageScale="1" pageWidth="850" pageHeight="1100" math="0" shadow="0">
      <root>
        <mxCell id="0" />
        <mxCell id="1" parent="0" />
        <mxCell id="VB2aByQX2R5_YcC8xGIF-22" style="edgeStyle=orthogonalEdgeStyle;rounded=0;orthogonalLoop=1;jettySize=auto;html=1;exitX=0.5;exitY=0;exitDx=0;exitDy=0;" edge="1" parent="1" source="VB2aByQX2R5_YcC8xGIF-23">
          <mxGeometry relative="1" as="geometry">
            <mxPoint x="450" y="1820" as="targetPoint" />
          </mxGeometry>
        </mxCell>
        <mxCell id="VB2aByQX2R5_YcC8xGIF-23" value="&lt;b&gt;PracticalExam&lt;/b&gt;" style="swimlane;fontStyle=0;childLayout=stackLayout;horizontal=1;startSize=26;fillColor=none;horizontalStack=0;resizeParent=1;resizeParentMax=0;resizeLast=0;collapsible=1;marginBottom=0;whiteSpace=wrap;html=1;" vertex="1" parent="1">
          <mxGeometry x="380" y="1870" width="140" height="52" as="geometry" />
        </mxCell>
        <mxCell id="VB2aByQX2R5_YcC8xGIF-24" style="edgeStyle=orthogonalEdgeStyle;rounded=0;orthogonalLoop=1;jettySize=auto;html=1;" edge="1" parent="1" source="VB2aByQX2R5_YcC8xGIF-25">
          <mxGeometry relative="1" as="geometry">
            <mxPoint x="655" y="1820" as="targetPoint" />
          </mxGeometry>
        </mxCell>
        <mxCell id="VB2aByQX2R5_YcC8xGIF-25" value="&lt;b&gt;FinalExam&lt;/b&gt;" style="swimlane;fontStyle=0;childLayout=stackLayout;horizontal=1;startSize=26;fillColor=none;horizontalStack=0;resizeParent=1;resizeParentMax=0;resizeLast=0;collapsible=1;marginBottom=0;whiteSpace=wrap;html=1;" vertex="1" parent="1">
          <mxGeometry x="585" y="1870" width="140" height="52" as="geometry" />
        </mxCell>
        <mxCell id="VB2aByQX2R5_YcC8xGIF-26" value="&lt;b&gt;Answer&lt;/b&gt;" style="swimlane;fontStyle=0;childLayout=stackLayout;horizontal=1;startSize=26;fillColor=none;horizontalStack=0;resizeParent=1;resizeParentMax=0;resizeLast=0;collapsible=1;marginBottom=0;whiteSpace=wrap;html=1;" vertex="1" parent="1">
          <mxGeometry x="530" y="1960" width="140" height="78" as="geometry" />
        </mxCell>
        <mxCell id="VB2aByQX2R5_YcC8xGIF-27" value="+ AnswerText: string" style="text;strokeColor=none;fillColor=none;align=left;verticalAlign=top;spacingLeft=4;spacingRight=4;overflow=hidden;rotatable=0;points=[[0,0.5],[1,0.5]];portConstraint=eastwest;whiteSpace=wrap;html=1;" vertex="1" parent="VB2aByQX2R5_YcC8xGIF-26">
          <mxGeometry y="26" width="140" height="26" as="geometry" />
        </mxCell>
        <mxCell id="VB2aByQX2R5_YcC8xGIF-28" value="+ AnswerId: int" style="text;strokeColor=none;fillColor=none;align=left;verticalAlign=top;spacingLeft=4;spacingRight=4;overflow=hidden;rotatable=0;points=[[0,0.5],[1,0.5]];portConstraint=eastwest;whiteSpace=wrap;html=1;" vertex="1" parent="VB2aByQX2R5_YcC8xGIF-26">
          <mxGeometry y="52" width="140" height="26" as="geometry" />
        </mxCell>
        <mxCell id="VB2aByQX2R5_YcC8xGIF-29" style="edgeStyle=orthogonalEdgeStyle;rounded=0;orthogonalLoop=1;jettySize=auto;html=1;endArrow=diamondThin;endFill=0;" edge="1" parent="1" source="VB2aByQX2R5_YcC8xGIF-32">
          <mxGeometry relative="1" as="geometry">
            <mxPoint x="650" y="1200" as="targetPoint" />
          </mxGeometry>
        </mxCell>
        <mxCell id="VB2aByQX2R5_YcC8xGIF-30" style="rounded=0;orthogonalLoop=1;jettySize=auto;html=1;exitX=0.368;exitY=0;exitDx=0;exitDy=0;exitPerimeter=0;endArrow=diamondThin;endFill=0;" edge="1" parent="1" source="VB2aByQX2R5_YcC8xGIF-32">
          <mxGeometry relative="1" as="geometry">
            <mxPoint x="404" y="1200" as="targetPoint" />
          </mxGeometry>
        </mxCell>
        <mxCell id="VB2aByQX2R5_YcC8xGIF-31" style="rounded=0;orthogonalLoop=1;jettySize=auto;html=1;entryX=0.75;entryY=1;entryDx=0;entryDy=0;endArrow=diamondThin;endFill=0;" edge="1" parent="1" source="VB2aByQX2R5_YcC8xGIF-32" target="VB2aByQX2R5_YcC8xGIF-49">
          <mxGeometry relative="1" as="geometry" />
        </mxCell>
        <mxCell id="VB2aByQX2R5_YcC8xGIF-32" value="ExaminationSystem (static)" style="swimlane;fontStyle=1;align=center;verticalAlign=top;childLayout=stackLayout;horizontal=1;startSize=26;horizontalStack=0;resizeParent=1;resizeParentMax=0;resizeLast=0;collapsible=1;marginBottom=0;whiteSpace=wrap;html=1;" vertex="1" parent="1">
          <mxGeometry x="260" y="1280" width="390" height="190" as="geometry" />
        </mxCell>
        <mxCell id="VB2aByQX2R5_YcC8xGIF-33" value="+ Teachers:&amp;nbsp;Dictionary&amp;lt;int, string&amp;gt;" style="text;strokeColor=none;fillColor=none;align=left;verticalAlign=top;spacingLeft=4;spacingRight=4;overflow=hidden;rotatable=0;points=[[0,0.5],[1,0.5]];portConstraint=eastwest;whiteSpace=wrap;html=1;" vertex="1" parent="VB2aByQX2R5_YcC8xGIF-32">
          <mxGeometry y="26" width="390" height="26" as="geometry" />
        </mxCell>
        <mxCell id="VB2aByQX2R5_YcC8xGIF-34" value="+ Students:&amp;nbsp;Dictionary&amp;lt;int, string&amp;gt;" style="text;strokeColor=none;fillColor=none;align=left;verticalAlign=top;spacingLeft=4;spacingRight=4;overflow=hidden;rotatable=0;points=[[0,0.5],[1,0.5]];portConstraint=eastwest;whiteSpace=wrap;html=1;" vertex="1" parent="VB2aByQX2R5_YcC8xGIF-32">
          <mxGeometry y="52" width="390" height="26" as="geometry" />
        </mxCell>
        <mxCell id="VB2aByQX2R5_YcC8xGIF-35" value="+ Managers:&amp;nbsp;Dictionary&amp;lt;int, string&amp;gt;" style="text;strokeColor=none;fillColor=none;align=left;verticalAlign=top;spacingLeft=4;spacingRight=4;overflow=hidden;rotatable=0;points=[[0,0.5],[1,0.5]];portConstraint=eastwest;whiteSpace=wrap;html=1;" vertex="1" parent="VB2aByQX2R5_YcC8xGIF-32">
          <mxGeometry y="78" width="390" height="26" as="geometry" />
        </mxCell>
        <mxCell id="VB2aByQX2R5_YcC8xGIF-36" value="+ Subjects: subject[]" style="text;strokeColor=none;fillColor=none;align=left;verticalAlign=top;spacingLeft=4;spacingRight=4;overflow=hidden;rotatable=0;points=[[0,0.5],[1,0.5]];portConstraint=eastwest;whiteSpace=wrap;html=1;" vertex="1" parent="VB2aByQX2R5_YcC8xGIF-32">
          <mxGeometry y="104" width="390" height="26" as="geometry" />
        </mxCell>
        <mxCell id="VB2aByQX2R5_YcC8xGIF-37" value="" style="line;strokeWidth=1;fillColor=none;align=left;verticalAlign=middle;spacingTop=-1;spacingLeft=3;spacingRight=3;rotatable=0;labelPosition=right;points=[];portConstraint=eastwest;strokeColor=inherit;" vertex="1" parent="VB2aByQX2R5_YcC8xGIF-32">
          <mxGeometry y="130" width="390" height="8" as="geometry" />
        </mxCell>
        <mxCell id="VB2aByQX2R5_YcC8xGIF-38" value="+ VerifyRole(Dictionary&amp;lt;int,string&amp;gt;): void" style="text;strokeColor=none;fillColor=none;align=left;verticalAlign=top;spacingLeft=4;spacingRight=4;overflow=hidden;rotatable=0;points=[[0,0.5],[1,0.5]];portConstraint=eastwest;whiteSpace=wrap;html=1;" vertex="1" parent="VB2aByQX2R5_YcC8xGIF-32">
          <mxGeometry y="138" width="390" height="26" as="geometry" />
        </mxCell>
        <mxCell id="VB2aByQX2R5_YcC8xGIF-39" value="+ ExistInSystem(int , Dictionary&amp;lt;int,string&amp;gt; , out string name): bool" style="text;strokeColor=none;fillColor=none;align=left;verticalAlign=top;spacingLeft=4;spacingRight=4;overflow=hidden;rotatable=0;points=[[0,0.5],[1,0.5]];portConstraint=eastwest;whiteSpace=wrap;html=1;" vertex="1" parent="VB2aByQX2R5_YcC8xGIF-32">
          <mxGeometry y="164" width="390" height="26" as="geometry" />
        </mxCell>
        <mxCell id="VB2aByQX2R5_YcC8xGIF-40" value="Character" style="swimlane;fontStyle=1;align=center;verticalAlign=top;childLayout=stackLayout;horizontal=1;startSize=26;horizontalStack=0;resizeParent=1;resizeParentMax=0;resizeLast=0;collapsible=1;marginBottom=0;whiteSpace=wrap;html=1;" vertex="1" parent="1">
          <mxGeometry x="15" y="960" width="290" height="86" as="geometry" />
        </mxCell>
        <mxCell id="VB2aByQX2R5_YcC8xGIF-41" value="+ Name : string" style="text;strokeColor=none;fillColor=none;align=left;verticalAlign=top;spacingLeft=4;spacingRight=4;overflow=hidden;rotatable=0;points=[[0,0.5],[1,0.5]];portConstraint=eastwest;whiteSpace=wrap;html=1;" vertex="1" parent="VB2aByQX2R5_YcC8xGIF-40">
          <mxGeometry y="26" width="290" height="26" as="geometry" />
        </mxCell>
        <mxCell id="VB2aByQX2R5_YcC8xGIF-42" value="+ Id: int" style="text;strokeColor=none;fillColor=none;align=left;verticalAlign=top;spacingLeft=4;spacingRight=4;overflow=hidden;rotatable=0;points=[[0,0.5],[1,0.5]];portConstraint=eastwest;whiteSpace=wrap;html=1;" vertex="1" parent="VB2aByQX2R5_YcC8xGIF-40">
          <mxGeometry y="52" width="290" height="26" as="geometry" />
        </mxCell>
        <mxCell id="VB2aByQX2R5_YcC8xGIF-43" value="" style="line;strokeWidth=1;fillColor=none;align=left;verticalAlign=middle;spacingTop=-1;spacingLeft=3;spacingRight=3;rotatable=0;labelPosition=right;points=[];portConstraint=eastwest;strokeColor=inherit;" vertex="1" parent="VB2aByQX2R5_YcC8xGIF-40">
          <mxGeometry y="78" width="290" height="8" as="geometry" />
        </mxCell>
        <mxCell id="VB2aByQX2R5_YcC8xGIF-44" value="«interface»&lt;br&gt;&lt;span style=&quot;font-weight: 700;&quot;&gt;ICharacter&lt;/span&gt;&lt;div&gt;&lt;span style=&quot;font-weight: 700;&quot;&gt;&lt;br&gt;&lt;/span&gt;&lt;/div&gt;&lt;div&gt;&lt;span style=&quot;color: rgba(0, 0, 0, 0); font-family: monospace; font-size: 0px; text-align: start; text-wrap: nowrap;&quot;&gt;%3CmxGraphModel%3E%3Croot%3E%3CmxCell%20id%3D%220%22%2F%3E%3CmxCell%20id%3D%221%22%20parent%3D%220%22%2F%3E%3CmxCell%20id%3D%222%22%20value%3D%22%22%20style%3D%22line%3BstrokeWidth%3D1%3BfillColor%3Dnone%3Balign%3Dleft%3BverticalAlign%3Dmiddle%3BspacingTop%3D-1%3BspacingLeft%3D3%3BspacingRight%3D3%3Brotatable%3D0%3BlabelPosition%3Dright%3Bpoints%3D%5B%5D%3BportConstraint%3Deastwest%3BstrokeColor%3Dinherit%3B%22%20vertex%3D%221%22%20parent%3D%221%22%3E%3CmxGeometry%20x%3D%22385%22%20y%3D%221030%22%20width%3D%2265%22%20height%3D%228%22%20as%3D%22geometry%22%2F%3E%3C%2FmxCell%3E%3C%2Froot%3E%3C%2FmxGraphModel%3E&lt;/span&gt;&lt;span style=&quot;background-color: initial; font-size: 0px; text-wrap: nowrap;&quot;&gt;&lt;font face=&quot;monospace&quot; color=&quot;rgba(0, 0, 0, 0)&quot;&gt;static abstract void ViewOptions()&lt;/font&gt;&lt;/span&gt;&lt;span style=&quot;font-weight: 700;&quot;&gt;&lt;br&gt;&lt;/span&gt;&lt;/div&gt;" style="html=1;whiteSpace=wrap;" vertex="1" parent="1">
          <mxGeometry x="600" y="960" width="180" height="110" as="geometry" />
        </mxCell>
        <mxCell id="VB2aByQX2R5_YcC8xGIF-45" value="static ViewOptions():void" style="text;strokeColor=none;fillColor=none;align=left;verticalAlign=top;spacingLeft=4;spacingRight=4;overflow=hidden;rotatable=0;points=[[0,0.5],[1,0.5]];portConstraint=eastwest;whiteSpace=wrap;html=1;" vertex="1" parent="1">
          <mxGeometry x="600" y="1038" width="210" height="26" as="geometry" />
        </mxCell>
        <mxCell id="VB2aByQX2R5_YcC8xGIF-46" value="" style="line;strokeWidth=1;fillColor=none;align=left;verticalAlign=middle;spacingTop=-1;spacingLeft=3;spacingRight=3;rotatable=0;labelPosition=right;points=[];portConstraint=eastwest;strokeColor=inherit;" vertex="1" parent="1">
          <mxGeometry x="600" y="1030" width="180" height="8" as="geometry" />
        </mxCell>
        <mxCell id="VB2aByQX2R5_YcC8xGIF-47" style="edgeStyle=orthogonalEdgeStyle;rounded=0;orthogonalLoop=1;jettySize=auto;html=1;exitX=0.5;exitY=0;exitDx=0;exitDy=0;entryX=0.25;entryY=1;entryDx=0;entryDy=0;" edge="1" parent="1" source="VB2aByQX2R5_YcC8xGIF-49" target="VB2aByQX2R5_YcC8xGIF-40">
          <mxGeometry relative="1" as="geometry" />
        </mxCell>
        <mxCell id="VB2aByQX2R5_YcC8xGIF-48" style="rounded=0;orthogonalLoop=1;jettySize=auto;html=1;dashed=1;endArrow=block;endFill=0;" edge="1" parent="1" source="VB2aByQX2R5_YcC8xGIF-49">
          <mxGeometry relative="1" as="geometry">
            <mxPoint x="590" y="990" as="targetPoint" />
          </mxGeometry>
        </mxCell>
        <mxCell id="VB2aByQX2R5_YcC8xGIF-49" value="Teacher" style="swimlane;fontStyle=1;align=center;verticalAlign=top;childLayout=stackLayout;horizontal=1;startSize=26;horizontalStack=0;resizeParent=1;resizeParentMax=0;resizeLast=0;collapsible=1;marginBottom=0;whiteSpace=wrap;html=1;" vertex="1" parent="1">
          <mxGeometry x="30" y="1160" width="195" height="34" as="geometry" />
        </mxCell>
        <mxCell id="VB2aByQX2R5_YcC8xGIF-50" value="" style="line;strokeWidth=1;fillColor=none;align=left;verticalAlign=middle;spacingTop=-1;spacingLeft=3;spacingRight=3;rotatable=0;labelPosition=right;points=[];portConstraint=eastwest;strokeColor=inherit;" vertex="1" parent="VB2aByQX2R5_YcC8xGIF-49">
          <mxGeometry y="26" width="195" height="8" as="geometry" />
        </mxCell>
        <mxCell id="VB2aByQX2R5_YcC8xGIF-51" style="edgeStyle=orthogonalEdgeStyle;rounded=0;orthogonalLoop=1;jettySize=auto;html=1;exitX=0.5;exitY=0;exitDx=0;exitDy=0;" edge="1" parent="1" source="VB2aByQX2R5_YcC8xGIF-53">
          <mxGeometry relative="1" as="geometry">
            <mxPoint x="180" y="1050" as="targetPoint" />
          </mxGeometry>
        </mxCell>
        <mxCell id="VB2aByQX2R5_YcC8xGIF-52" style="rounded=0;orthogonalLoop=1;jettySize=auto;html=1;dashed=1;endArrow=block;endFill=0;" edge="1" parent="1" source="VB2aByQX2R5_YcC8xGIF-53">
          <mxGeometry relative="1" as="geometry">
            <mxPoint x="590" y="1060" as="targetPoint" />
          </mxGeometry>
        </mxCell>
        <mxCell id="VB2aByQX2R5_YcC8xGIF-53" value="Student" style="swimlane;fontStyle=1;align=center;verticalAlign=top;childLayout=stackLayout;horizontal=1;startSize=26;horizontalStack=0;resizeParent=1;resizeParentMax=0;resizeLast=0;collapsible=1;marginBottom=0;whiteSpace=wrap;html=1;" vertex="1" parent="1">
          <mxGeometry x="305" y="1160" width="175" height="34" as="geometry" />
        </mxCell>
        <mxCell id="VB2aByQX2R5_YcC8xGIF-54" value="" style="line;strokeWidth=1;fillColor=none;align=left;verticalAlign=middle;spacingTop=-1;spacingLeft=3;spacingRight=3;rotatable=0;labelPosition=right;points=[];portConstraint=eastwest;strokeColor=inherit;" vertex="1" parent="VB2aByQX2R5_YcC8xGIF-53">
          <mxGeometry y="26" width="175" height="8" as="geometry" />
        </mxCell>
        <mxCell id="VB2aByQX2R5_YcC8xGIF-55" style="rounded=0;orthogonalLoop=1;jettySize=auto;html=1;" edge="1" parent="1" source="VB2aByQX2R5_YcC8xGIF-57">
          <mxGeometry relative="1" as="geometry">
            <mxPoint x="310" y="1040" as="targetPoint" />
          </mxGeometry>
        </mxCell>
        <mxCell id="VB2aByQX2R5_YcC8xGIF-56" style="edgeStyle=orthogonalEdgeStyle;rounded=0;orthogonalLoop=1;jettySize=auto;html=1;exitX=0.25;exitY=0;exitDx=0;exitDy=0;dashed=1;endArrow=block;endFill=0;" edge="1" parent="1" source="VB2aByQX2R5_YcC8xGIF-57">
          <mxGeometry relative="1" as="geometry">
            <mxPoint x="750" y="1080" as="targetPoint" />
          </mxGeometry>
        </mxCell>
        <mxCell id="VB2aByQX2R5_YcC8xGIF-57" value="Manager" style="swimlane;fontStyle=1;align=center;verticalAlign=top;childLayout=stackLayout;horizontal=1;startSize=26;horizontalStack=0;resizeParent=1;resizeParentMax=0;resizeLast=0;collapsible=1;marginBottom=0;whiteSpace=wrap;html=1;" vertex="1" parent="1">
          <mxGeometry x="600" y="1160" width="180" height="34" as="geometry" />
        </mxCell>
        <mxCell id="VB2aByQX2R5_YcC8xGIF-58" value="" style="line;strokeWidth=1;fillColor=none;align=left;verticalAlign=middle;spacingTop=-1;spacingLeft=3;spacingRight=3;rotatable=0;labelPosition=right;points=[];portConstraint=eastwest;strokeColor=inherit;" vertex="1" parent="VB2aByQX2R5_YcC8xGIF-57">
          <mxGeometry y="26" width="180" height="8" as="geometry" />
        </mxCell>
        <mxCell id="VB2aByQX2R5_YcC8xGIF-59" style="edgeStyle=orthogonalEdgeStyle;rounded=0;orthogonalLoop=1;jettySize=auto;html=1;entryX=0;entryY=0.5;entryDx=0;entryDy=0;endArrow=diamondThin;endFill=0;" edge="1" parent="1" source="VB2aByQX2R5_YcC8xGIF-60" target="VB2aByQX2R5_YcC8xGIF-38">
          <mxGeometry relative="1" as="geometry" />
        </mxCell>
        <mxCell id="VB2aByQX2R5_YcC8xGIF-60" value="&lt;b&gt;subject&lt;/b&gt;" style="swimlane;fontStyle=0;childLayout=stackLayout;horizontal=1;startSize=26;fillColor=none;horizontalStack=0;resizeParent=1;resizeParentMax=0;resizeLast=0;collapsible=1;marginBottom=0;whiteSpace=wrap;html=1;" vertex="1" parent="1">
          <mxGeometry x="30" y="1560" width="170" height="164" as="geometry" />
        </mxCell>
        <mxCell id="VB2aByQX2R5_YcC8xGIF-61" value="+ Name: string" style="text;strokeColor=none;fillColor=none;align=left;verticalAlign=top;spacingLeft=4;spacingRight=4;overflow=hidden;rotatable=0;points=[[0,0.5],[1,0.5]];portConstraint=eastwest;whiteSpace=wrap;html=1;" vertex="1" parent="VB2aByQX2R5_YcC8xGIF-60">
          <mxGeometry y="26" width="170" height="26" as="geometry" />
        </mxCell>
        <mxCell id="VB2aByQX2R5_YcC8xGIF-62" value="+ Id:int&lt;div&gt;&lt;br&gt;&lt;/div&gt;" style="text;strokeColor=none;fillColor=none;align=left;verticalAlign=top;spacingLeft=4;spacingRight=4;overflow=hidden;rotatable=0;points=[[0,0.5],[1,0.5]];portConstraint=eastwest;whiteSpace=wrap;html=1;" vertex="1" parent="VB2aByQX2R5_YcC8xGIF-60">
          <mxGeometry y="52" width="170" height="26" as="geometry" />
        </mxCell>
        <mxCell id="VB2aByQX2R5_YcC8xGIF-63" value="+ SubjectExam: Exam" style="text;strokeColor=none;fillColor=none;align=left;verticalAlign=top;spacingLeft=4;spacingRight=4;overflow=hidden;rotatable=0;points=[[0,0.5],[1,0.5]];portConstraint=eastwest;whiteSpace=wrap;html=1;" vertex="1" parent="VB2aByQX2R5_YcC8xGIF-60">
          <mxGeometry y="78" width="170" height="26" as="geometry" />
        </mxCell>
        <mxCell id="VB2aByQX2R5_YcC8xGIF-64" style="edgeStyle=orthogonalEdgeStyle;rounded=0;orthogonalLoop=1;jettySize=auto;html=1;endArrow=diamondThin;endFill=0;" edge="1" parent="VB2aByQX2R5_YcC8xGIF-60" source="VB2aByQX2R5_YcC8xGIF-66">
          <mxGeometry relative="1" as="geometry">
            <mxPoint x="330" y="130" as="targetPoint" />
          </mxGeometry>
        </mxCell>
        <mxCell id="VB2aByQX2R5_YcC8xGIF-65" value="" style="line;strokeWidth=1;fillColor=none;align=left;verticalAlign=middle;spacingTop=-1;spacingLeft=3;spacingRight=3;rotatable=0;labelPosition=right;points=[];portConstraint=eastwest;strokeColor=inherit;" vertex="1" parent="VB2aByQX2R5_YcC8xGIF-60">
          <mxGeometry y="104" width="170" height="8" as="geometry" />
        </mxCell>
        <mxCell id="VB2aByQX2R5_YcC8xGIF-66" value="+ CreateExam(): void" style="text;strokeColor=none;fillColor=none;align=left;verticalAlign=top;spacingLeft=4;spacingRight=4;overflow=hidden;rotatable=0;points=[[0,0.5],[1,0.5]];portConstraint=eastwest;whiteSpace=wrap;html=1;" vertex="1" parent="VB2aByQX2R5_YcC8xGIF-60">
          <mxGeometry y="112" width="170" height="26" as="geometry" />
        </mxCell>
        <mxCell id="VB2aByQX2R5_YcC8xGIF-67" value="+ ShowExam(): void" style="text;strokeColor=none;fillColor=none;align=left;verticalAlign=top;spacingLeft=4;spacingRight=4;overflow=hidden;rotatable=0;points=[[0,0.5],[1,0.5]];portConstraint=eastwest;whiteSpace=wrap;html=1;" vertex="1" parent="VB2aByQX2R5_YcC8xGIF-60">
          <mxGeometry y="138" width="170" height="26" as="geometry" />
        </mxCell>
        <mxCell id="VB2aByQX2R5_YcC8xGIF-68" value="&lt;b&gt;Exam&lt;/b&gt;" style="swimlane;fontStyle=0;childLayout=stackLayout;horizontal=1;startSize=26;fillColor=none;horizontalStack=0;resizeParent=1;resizeParentMax=0;resizeLast=0;collapsible=1;marginBottom=0;whiteSpace=wrap;html=1;" vertex="1" parent="1">
          <mxGeometry x="365" y="1573" width="360" height="242" as="geometry" />
        </mxCell>
        <mxCell id="VB2aByQX2R5_YcC8xGIF-69" value="+ Time: int" style="text;strokeColor=none;fillColor=none;align=left;verticalAlign=top;spacingLeft=4;spacingRight=4;overflow=hidden;rotatable=0;points=[[0,0.5],[1,0.5]];portConstraint=eastwest;whiteSpace=wrap;html=1;" vertex="1" parent="VB2aByQX2R5_YcC8xGIF-68">
          <mxGeometry y="26" width="360" height="26" as="geometry" />
        </mxCell>
        <mxCell id="VB2aByQX2R5_YcC8xGIF-70" value="+ NumberOfQuestions: int" style="text;strokeColor=none;fillColor=none;align=left;verticalAlign=top;spacingLeft=4;spacingRight=4;overflow=hidden;rotatable=0;points=[[0,0.5],[1,0.5]];portConstraint=eastwest;whiteSpace=wrap;html=1;" vertex="1" parent="VB2aByQX2R5_YcC8xGIF-68">
          <mxGeometry y="52" width="360" height="26" as="geometry" />
        </mxCell>
        <mxCell id="VB2aByQX2R5_YcC8xGIF-71" value="+ Questions :virtual List&amp;lt;Question&amp;gt;&amp;nbsp;" style="text;strokeColor=none;fillColor=none;align=left;verticalAlign=top;spacingLeft=4;spacingRight=4;overflow=hidden;rotatable=0;points=[[0,0.5],[1,0.5]];portConstraint=eastwest;whiteSpace=wrap;html=1;" vertex="1" parent="VB2aByQX2R5_YcC8xGIF-68">
          <mxGeometry y="78" width="360" height="26" as="geometry" />
        </mxCell>
        <mxCell id="VB2aByQX2R5_YcC8xGIF-72" value="+ Answers :virtual List&amp;lt;Question&amp;gt;&amp;nbsp;" style="text;strokeColor=none;fillColor=none;align=left;verticalAlign=top;spacingLeft=4;spacingRight=4;overflow=hidden;rotatable=0;points=[[0,0.5],[1,0.5]];portConstraint=eastwest;whiteSpace=wrap;html=1;" vertex="1" parent="VB2aByQX2R5_YcC8xGIF-68">
          <mxGeometry y="104" width="360" height="26" as="geometry" />
        </mxCell>
        <mxCell id="VB2aByQX2R5_YcC8xGIF-73" value="+ Subject: Subject" style="text;strokeColor=none;fillColor=none;align=left;verticalAlign=top;spacingLeft=4;spacingRight=4;overflow=hidden;rotatable=0;points=[[0,0.5],[1,0.5]];portConstraint=eastwest;whiteSpace=wrap;html=1;" vertex="1" parent="VB2aByQX2R5_YcC8xGIF-68">
          <mxGeometry y="130" width="360" height="26" as="geometry" />
        </mxCell>
        <mxCell id="VB2aByQX2R5_YcC8xGIF-74" value="" style="line;strokeWidth=1;fillColor=none;align=left;verticalAlign=middle;spacingTop=-1;spacingLeft=3;spacingRight=3;rotatable=0;labelPosition=right;points=[];portConstraint=eastwest;strokeColor=inherit;" vertex="1" parent="VB2aByQX2R5_YcC8xGIF-68">
          <mxGeometry y="156" width="360" height="8" as="geometry" />
        </mxCell>
        <mxCell id="VB2aByQX2R5_YcC8xGIF-75" value="+&amp;nbsp; static getExamDetatils(out int , out int ): void" style="text;strokeColor=none;fillColor=none;align=left;verticalAlign=top;spacingLeft=4;spacingRight=4;overflow=hidden;rotatable=0;points=[[0,0.5],[1,0.5]];portConstraint=eastwest;whiteSpace=wrap;html=1;" vertex="1" parent="VB2aByQX2R5_YcC8xGIF-68">
          <mxGeometry y="164" width="360" height="26" as="geometry" />
        </mxCell>
        <mxCell id="VB2aByQX2R5_YcC8xGIF-76" value="+&amp;nbsp; virtual CreateQuestions(): void" style="text;strokeColor=none;fillColor=none;align=left;verticalAlign=top;spacingLeft=4;spacingRight=4;overflow=hidden;rotatable=0;points=[[0,0.5],[1,0.5]];portConstraint=eastwest;whiteSpace=wrap;html=1;" vertex="1" parent="VB2aByQX2R5_YcC8xGIF-68">
          <mxGeometry y="190" width="360" height="26" as="geometry" />
        </mxCell>
        <mxCell id="VB2aByQX2R5_YcC8xGIF-77" value="+&amp;nbsp; virtual ShowQuestions(): void" style="text;strokeColor=none;fillColor=none;align=left;verticalAlign=top;spacingLeft=4;spacingRight=4;overflow=hidden;rotatable=0;points=[[0,0.5],[1,0.5]];portConstraint=eastwest;whiteSpace=wrap;html=1;" vertex="1" parent="VB2aByQX2R5_YcC8xGIF-68">
          <mxGeometry y="216" width="360" height="26" as="geometry" />
        </mxCell>
        <mxCell id="VB2aByQX2R5_YcC8xGIF-78" style="rounded=0;orthogonalLoop=1;jettySize=auto;html=1;endArrow=diamondThin;endFill=0;" edge="1" parent="1" source="VB2aByQX2R5_YcC8xGIF-79">
          <mxGeometry relative="1" as="geometry">
            <mxPoint x="350" y="1750" as="targetPoint" />
            <Array as="points">
              <mxPoint x="270" y="1820" />
            </Array>
          </mxGeometry>
        </mxCell>
        <mxCell id="VB2aByQX2R5_YcC8xGIF-79" value="&lt;b&gt;Question&lt;/b&gt;" style="swimlane;fontStyle=0;childLayout=stackLayout;horizontal=1;startSize=26;fillColor=none;horizontalStack=0;resizeParent=1;resizeParentMax=0;resizeLast=0;collapsible=1;marginBottom=0;whiteSpace=wrap;html=1;" vertex="1" parent="1">
          <mxGeometry x="225" y="1940" width="170" height="112" as="geometry" />
        </mxCell>
        <mxCell id="VB2aByQX2R5_YcC8xGIF-80" value="+ Body: string" style="text;strokeColor=none;fillColor=none;align=left;verticalAlign=top;spacingLeft=4;spacingRight=4;overflow=hidden;rotatable=0;points=[[0,0.5],[1,0.5]];portConstraint=eastwest;whiteSpace=wrap;html=1;" vertex="1" parent="VB2aByQX2R5_YcC8xGIF-79">
          <mxGeometry y="26" width="170" height="26" as="geometry" />
        </mxCell>
        <mxCell id="VB2aByQX2R5_YcC8xGIF-81" value="+ Mark:int&lt;div&gt;&lt;br&gt;&lt;/div&gt;" style="text;strokeColor=none;fillColor=none;align=left;verticalAlign=top;spacingLeft=4;spacingRight=4;overflow=hidden;rotatable=0;points=[[0,0.5],[1,0.5]];portConstraint=eastwest;whiteSpace=wrap;html=1;" vertex="1" parent="VB2aByQX2R5_YcC8xGIF-79">
          <mxGeometry y="52" width="170" height="26" as="geometry" />
        </mxCell>
        <mxCell id="VB2aByQX2R5_YcC8xGIF-82" value="+ Answers: Answer[]" style="text;strokeColor=none;fillColor=none;align=left;verticalAlign=top;spacingLeft=4;spacingRight=4;overflow=hidden;rotatable=0;points=[[0,0.5],[1,0.5]];portConstraint=eastwest;whiteSpace=wrap;html=1;" vertex="1" parent="VB2aByQX2R5_YcC8xGIF-79">
          <mxGeometry y="78" width="170" height="26" as="geometry" />
        </mxCell>
        <mxCell id="VB2aByQX2R5_YcC8xGIF-83" value="" style="line;strokeWidth=1;fillColor=none;align=left;verticalAlign=middle;spacingTop=-1;spacingLeft=3;spacingRight=3;rotatable=0;labelPosition=right;points=[];portConstraint=eastwest;strokeColor=inherit;" vertex="1" parent="VB2aByQX2R5_YcC8xGIF-79">
          <mxGeometry y="104" width="170" height="8" as="geometry" />
        </mxCell>
        <mxCell id="VB2aByQX2R5_YcC8xGIF-84" value="&lt;b&gt;McqQuestion&lt;/b&gt;" style="swimlane;fontStyle=0;childLayout=stackLayout;horizontal=1;startSize=26;fillColor=none;horizontalStack=0;resizeParent=1;resizeParentMax=0;resizeLast=0;collapsible=1;marginBottom=0;whiteSpace=wrap;html=1;" vertex="1" parent="1">
          <mxGeometry x="100" y="2125" width="170" height="116" as="geometry" />
        </mxCell>
        <mxCell id="VB2aByQX2R5_YcC8xGIF-85" value="+ Choices: string[]" style="text;strokeColor=none;fillColor=none;align=left;verticalAlign=top;spacingLeft=4;spacingRight=4;overflow=hidden;rotatable=0;points=[[0,0.5],[1,0.5]];portConstraint=eastwest;whiteSpace=wrap;html=1;" vertex="1" parent="VB2aByQX2R5_YcC8xGIF-84">
          <mxGeometry y="26" width="170" height="26" as="geometry" />
        </mxCell>
        <mxCell id="VB2aByQX2R5_YcC8xGIF-86" value="" style="line;strokeWidth=1;fillColor=none;align=left;verticalAlign=middle;spacingTop=-1;spacingLeft=3;spacingRight=3;rotatable=0;labelPosition=right;points=[];portConstraint=eastwest;strokeColor=inherit;" vertex="1" parent="VB2aByQX2R5_YcC8xGIF-84">
          <mxGeometry y="52" width="170" height="8" as="geometry" />
        </mxCell>
        <mxCell id="VB2aByQX2R5_YcC8xGIF-87" value="+ CreateQuestion(): void" style="text;strokeColor=none;fillColor=none;align=left;verticalAlign=top;spacingLeft=4;spacingRight=4;overflow=hidden;rotatable=0;points=[[0,0.5],[1,0.5]];portConstraint=eastwest;whiteSpace=wrap;html=1;" vertex="1" parent="VB2aByQX2R5_YcC8xGIF-84">
          <mxGeometry y="60" width="170" height="30" as="geometry" />
        </mxCell>
        <mxCell id="VB2aByQX2R5_YcC8xGIF-88" value="+ ShowQuestion(): void" style="text;strokeColor=none;fillColor=none;align=left;verticalAlign=top;spacingLeft=4;spacingRight=4;overflow=hidden;rotatable=0;points=[[0,0.5],[1,0.5]];portConstraint=eastwest;whiteSpace=wrap;html=1;" vertex="1" parent="VB2aByQX2R5_YcC8xGIF-84">
          <mxGeometry y="90" width="170" height="26" as="geometry" />
        </mxCell>
        <mxCell id="VB2aByQX2R5_YcC8xGIF-89" value="&lt;b&gt;TrueorFalseQuestion&lt;/b&gt;" style="swimlane;fontStyle=0;childLayout=stackLayout;horizontal=1;startSize=26;fillColor=none;horizontalStack=0;resizeParent=1;resizeParentMax=0;resizeLast=0;collapsible=1;marginBottom=0;whiteSpace=wrap;html=1;" vertex="1" parent="1">
          <mxGeometry x="350" y="2125" width="170" height="86" as="geometry" />
        </mxCell>
        <mxCell id="VB2aByQX2R5_YcC8xGIF-90" value="" style="line;strokeWidth=1;fillColor=none;align=left;verticalAlign=middle;spacingTop=-1;spacingLeft=3;spacingRight=3;rotatable=0;labelPosition=right;points=[];portConstraint=eastwest;strokeColor=inherit;" vertex="1" parent="VB2aByQX2R5_YcC8xGIF-89">
          <mxGeometry y="26" width="170" height="8" as="geometry" />
        </mxCell>
        <mxCell id="VB2aByQX2R5_YcC8xGIF-91" value="+ CreateQuestion(): void" style="text;strokeColor=none;fillColor=none;align=left;verticalAlign=top;spacingLeft=4;spacingRight=4;overflow=hidden;rotatable=0;points=[[0,0.5],[1,0.5]];portConstraint=eastwest;whiteSpace=wrap;html=1;" vertex="1" parent="VB2aByQX2R5_YcC8xGIF-89">
          <mxGeometry y="34" width="170" height="26" as="geometry" />
        </mxCell>
        <mxCell id="VB2aByQX2R5_YcC8xGIF-92" value="+ ShowQuestion(): void" style="text;strokeColor=none;fillColor=none;align=left;verticalAlign=top;spacingLeft=4;spacingRight=4;overflow=hidden;rotatable=0;points=[[0,0.5],[1,0.5]];portConstraint=eastwest;whiteSpace=wrap;html=1;" vertex="1" parent="VB2aByQX2R5_YcC8xGIF-89">
          <mxGeometry y="60" width="170" height="26" as="geometry" />
        </mxCell>
        <mxCell id="VB2aByQX2R5_YcC8xGIF-93" style="rounded=0;orthogonalLoop=1;jettySize=auto;html=1;" edge="1" parent="1" source="VB2aByQX2R5_YcC8xGIF-84">
          <mxGeometry relative="1" as="geometry">
            <mxPoint x="250" y="2060" as="targetPoint" />
            <Array as="points">
              <mxPoint x="220" y="2090" />
            </Array>
          </mxGeometry>
        </mxCell>
        <mxCell id="VB2aByQX2R5_YcC8xGIF-94" style="rounded=0;orthogonalLoop=1;jettySize=auto;html=1;" edge="1" parent="1">
          <mxGeometry relative="1" as="geometry">
            <mxPoint x="410" y="2120" as="sourcePoint" />
            <mxPoint x="330" y="2060" as="targetPoint" />
          </mxGeometry>
        </mxCell>
        <mxCell id="VB2aByQX2R5_YcC8xGIF-95" style="edgeStyle=orthogonalEdgeStyle;rounded=0;orthogonalLoop=1;jettySize=auto;html=1;exitX=0;exitY=0.5;exitDx=0;exitDy=0;entryX=1.022;entryY=0.256;entryDx=0;entryDy=0;entryPerimeter=0;endArrow=diamondThin;endFill=0;" edge="1" parent="1" source="VB2aByQX2R5_YcC8xGIF-27" target="VB2aByQX2R5_YcC8xGIF-80">
          <mxGeometry relative="1" as="geometry" />
        </mxCell>
        <mxCell id="VB2aByQX2R5_YcC8xGIF-96" value="Teacher" style="rounded=1;whiteSpace=wrap;html=1;" vertex="1" parent="1">
          <mxGeometry x="37.5" y="260" width="120" height="60" as="geometry" />
        </mxCell>
        <mxCell id="VB2aByQX2R5_YcC8xGIF-97" value="subject" style="rounded=1;whiteSpace=wrap;html=1;" vertex="1" parent="1">
          <mxGeometry x="232.5" y="260" width="120" height="60" as="geometry" />
        </mxCell>
        <mxCell id="VB2aByQX2R5_YcC8xGIF-98" value="Exam" style="rounded=1;whiteSpace=wrap;html=1;" vertex="1" parent="1">
          <mxGeometry x="432.5" y="260" width="120" height="60" as="geometry" />
        </mxCell>
        <mxCell id="VB2aByQX2R5_YcC8xGIF-99" value="Question" style="rounded=1;whiteSpace=wrap;html=1;" vertex="1" parent="1">
          <mxGeometry x="627.5" y="260" width="120" height="60" as="geometry" />
        </mxCell>
        <mxCell id="VB2aByQX2R5_YcC8xGIF-100" value="" style="endArrow=classic;html=1;rounded=0;exitX=1;exitY=0.5;exitDx=0;exitDy=0;entryX=0;entryY=0.5;entryDx=0;entryDy=0;" edge="1" parent="1" source="VB2aByQX2R5_YcC8xGIF-96" target="VB2aByQX2R5_YcC8xGIF-97">
          <mxGeometry width="50" height="50" relative="1" as="geometry">
            <mxPoint x="402.5" y="410" as="sourcePoint" />
            <mxPoint x="452.5" y="360" as="targetPoint" />
          </mxGeometry>
        </mxCell>
        <mxCell id="VB2aByQX2R5_YcC8xGIF-101" value="" style="endArrow=classic;html=1;rounded=0;exitX=1;exitY=0.5;exitDx=0;exitDy=0;entryX=0;entryY=0.5;entryDx=0;entryDy=0;" edge="1" parent="1">
          <mxGeometry width="50" height="50" relative="1" as="geometry">
            <mxPoint x="352.5" y="289.5" as="sourcePoint" />
            <mxPoint x="427.5" y="289.5" as="targetPoint" />
          </mxGeometry>
        </mxCell>
        <mxCell id="VB2aByQX2R5_YcC8xGIF-102" value="" style="endArrow=classic;html=1;rounded=0;exitX=1;exitY=0.5;exitDx=0;exitDy=0;entryX=0;entryY=0.5;entryDx=0;entryDy=0;" edge="1" parent="1">
          <mxGeometry width="50" height="50" relative="1" as="geometry">
            <mxPoint x="552.5" y="289.5" as="sourcePoint" />
            <mxPoint x="627.5" y="289.5" as="targetPoint" />
          </mxGeometry>
        </mxCell>
        <mxCell id="VB2aByQX2R5_YcC8xGIF-103" value="creates" style="text;html=1;align=center;verticalAlign=middle;whiteSpace=wrap;rounded=0;" vertex="1" parent="1">
          <mxGeometry x="560" y="260" width="60" height="30" as="geometry" />
        </mxCell>
        <mxCell id="VB2aByQX2R5_YcC8xGIF-104" value="creates" style="text;html=1;align=center;verticalAlign=middle;whiteSpace=wrap;rounded=0;" vertex="1" parent="1">
          <mxGeometry x="362.5" y="260" width="60" height="30" as="geometry" />
        </mxCell>
        <mxCell id="VB2aByQX2R5_YcC8xGIF-105" value="creates" style="text;html=1;align=center;verticalAlign=middle;whiteSpace=wrap;rounded=0;" vertex="1" parent="1">
          <mxGeometry x="157.5" y="260" width="60" height="30" as="geometry" />
        </mxCell>
      </root>
    </mxGraphModel>
  </diagram>
</mxfile>
